<?xml version="1.0" encoding="utf-8" standalone="no"?>
<!DOCTYPE svg PUBLIC "-//W3C//DTD SVG 1.1//EN"
  "http://www.w3.org/Graphics/SVG/1.1/DTD/svg11.dtd">
<svg xmlns:xlink="http://www.w3.org/1999/xlink" width="720pt" height="432pt" viewBox="0 0 720 432" xmlns="http://www.w3.org/2000/svg" version="1.1">
 <metadata>
  <rdf:RDF xmlns:dc="http://purl.org/dc/elements/1.1/" xmlns:cc="http://creativecommons.org/ns#" xmlns:rdf="http://www.w3.org/1999/02/22-rdf-syntax-ns#">
   <cc:Work>
    <dc:type rdf:resource="http://purl.org/dc/dcmitype/StillImage"/>
    <dc:date>2026-01-03T21:14:53.180872</dc:date>
    <dc:format>image/svg+xml</dc:format>
    <dc:creator>
     <cc:Agent>
      <dc:title>Matplotlib v3.10.8, https://matplotlib.org/</dc:title>
     </cc:Agent>
    </dc:creator>
   </cc:Work>
  </rdf:RDF>
 </metadata>
 <defs>
  <style type="text/css">*{stroke-linejoin: round; stroke-linecap: butt}</style>
 </defs>
 <g id="figure_1">
  <g id="patch_1">
   <path d="M 0 432 
L 720 432 
L 720 0 
L 0 0 
z
" style="fill: #ffffff"/>
  </g>
  <g id="axes_1">
   <g id="patch_2">
    <path d="M 90 384.48 
L 648 384.48 
L 648 51.84 
L 90 51.84 
z
" style="fill: #ffffff"/>
   </g>
   <g id="matplotlib.axis_1">
    <g id="xtick_1">
     <g id="line2d_1">
      <path d="M 115.363636 384.48 
L 115.363636 51.84 
" clip-path="url(#p2a6d24fc85)" style="fill: none; stroke: #b0b0b0; stroke-width: 0.8; stroke-linecap: square"/>
     </g>
     <g id="line2d_2">
      <defs>
       <path id="m9a8c31f491" d="M 0 0 
L 0 3.5 
" style="stroke: #000000; stroke-width: 0.8"/>
      </defs>
      <g>
       <use xlink:href="#m9a8c31f491" x="115.363636" y="384.48" style="stroke: #000000; stroke-width: 0.8"/>
      </g>
     </g>
     <g id="text_1">
      <!-- 0.0 -->
      <g transform="translate(107.412074 399.078438) scale(0.1 -0.1)">
       <defs>
        <path id="DejaVuSans-30" d="M 2034 4250 
Q 1547 4250 1301 3770 
Q 1056 3291 1056 2328 
Q 1056 1369 1301 889 
Q 1547 409 2034 409 
Q 2525 409 2770 889 
Q 3016 1369 3016 2328 
Q 3016 3291 2770 3770 
Q 2525 4250 2034 4250 
z
M 2034 4750 
Q 2819 4750 3233 4129 
Q 3647 3509 3647 2328 
Q 3647 1150 3233 529 
Q 2819 -91 2034 -91 
Q 1250 -91 836 529 
Q 422 1150 422 2328 
Q 422 3509 836 4129 
Q 1250 4750 2034 4750 
z
" transform="scale(0.015625)"/>
        <path id="DejaVuSans-2e" d="M 684 794 
L 1344 794 
L 1344 0 
L 684 0 
L 684 794 
z
" transform="scale(0.015625)"/>
       </defs>
       <use xlink:href="#DejaVuSans-30"/>
       <use xlink:href="#DejaVuSans-2e" transform="translate(63.623047 0)"/>
       <use xlink:href="#DejaVuSans-30" transform="translate(95.410156 0)"/>
      </g>
     </g>
    </g>
    <g id="xtick_2">
     <g id="line2d_3">
      <path d="M 216.818182 384.48 
L 216.818182 51.84 
" clip-path="url(#p2a6d24fc85)" style="fill: none; stroke: #b0b0b0; stroke-width: 0.8; stroke-linecap: square"/>
     </g>
     <g id="line2d_4">
      <g>
       <use xlink:href="#m9a8c31f491" x="216.818182" y="384.48" style="stroke: #000000; stroke-width: 0.8"/>
      </g>
     </g>
     <g id="text_2">
      <!-- 0.2 -->
      <g transform="translate(208.866619 399.078438) scale(0.1 -0.1)">
       <defs>
        <path id="DejaVuSans-32" d="M 1228 531 
L 3431 531 
L 3431 0 
L 469 0 
L 469 531 
Q 828 903 1448 1529 
Q 2069 2156 2228 2338 
Q 2531 2678 2651 2914 
Q 2772 3150 2772 3378 
Q 2772 3750 2511 3984 
Q 2250 4219 1831 4219 
Q 1534 4219 1204 4116 
Q 875 4013 500 3803 
L 500 4441 
Q 881 4594 1212 4672 
Q 1544 4750 1819 4750 
Q 2544 4750 2975 4387 
Q 3406 4025 3406 3419 
Q 3406 3131 3298 2873 
Q 3191 2616 2906 2266 
Q 2828 2175 2409 1742 
Q 1991 1309 1228 531 
z
" transform="scale(0.015625)"/>
       </defs>
       <use xlink:href="#DejaVuSans-30"/>
       <use xlink:href="#DejaVuSans-2e" transform="translate(63.623047 0)"/>
       <use xlink:href="#DejaVuSans-32" transform="translate(95.410156 0)"/>
      </g>
     </g>
    </g>
    <g id="xtick_3">
     <g id="line2d_5">
      <path d="M 318.272727 384.48 
L 318.272727 51.84 
" clip-path="url(#p2a6d24fc85)" style="fill: none; stroke: #b0b0b0; stroke-width: 0.8; stroke-linecap: square"/>
     </g>
     <g id="line2d_6">
      <g>
       <use xlink:href="#m9a8c31f491" x="318.272727" y="384.48" style="stroke: #000000; stroke-width: 0.8"/>
      </g>
     </g>
     <g id="text_3">
      <!-- 0.4 -->
      <g transform="translate(310.321165 399.078438) scale(0.1 -0.1)">
       <defs>
        <path id="DejaVuSans-34" d="M 2419 4116 
L 825 1625 
L 2419 1625 
L 2419 4116 
z
M 2253 4666 
L 3047 4666 
L 3047 1625 
L 3713 1625 
L 3713 1100 
L 3047 1100 
L 3047 0 
L 2419 0 
L 2419 1100 
L 313 1100 
L 313 1709 
L 2253 4666 
z
" transform="scale(0.015625)"/>
       </defs>
       <use xlink:href="#DejaVuSans-30"/>
       <use xlink:href="#DejaVuSans-2e" transform="translate(63.623047 0)"/>
       <use xlink:href="#DejaVuSans-34" transform="translate(95.410156 0)"/>
      </g>
     </g>
    </g>
    <g id="xtick_4">
     <g id="line2d_7">
      <path d="M 419.727273 384.48 
L 419.727273 51.84 
" clip-path="url(#p2a6d24fc85)" style="fill: none; stroke: #b0b0b0; stroke-width: 0.8; stroke-linecap: square"/>
     </g>
     <g id="line2d_8">
      <g>
       <use xlink:href="#m9a8c31f491" x="419.727273" y="384.48" style="stroke: #000000; stroke-width: 0.8"/>
      </g>
     </g>
     <g id="text_4">
      <!-- 0.6 -->
      <g transform="translate(411.77571 399.078438) scale(0.1 -0.1)">
       <defs>
        <path id="DejaVuSans-36" d="M 2113 2584 
Q 1688 2584 1439 2293 
Q 1191 2003 1191 1497 
Q 1191 994 1439 701 
Q 1688 409 2113 409 
Q 2538 409 2786 701 
Q 3034 994 3034 1497 
Q 3034 2003 2786 2293 
Q 2538 2584 2113 2584 
z
M 3366 4563 
L 3366 3988 
Q 3128 4100 2886 4159 
Q 2644 4219 2406 4219 
Q 1781 4219 1451 3797 
Q 1122 3375 1075 2522 
Q 1259 2794 1537 2939 
Q 1816 3084 2150 3084 
Q 2853 3084 3261 2657 
Q 3669 2231 3669 1497 
Q 3669 778 3244 343 
Q 2819 -91 2113 -91 
Q 1303 -91 875 529 
Q 447 1150 447 2328 
Q 447 3434 972 4092 
Q 1497 4750 2381 4750 
Q 2619 4750 2861 4703 
Q 3103 4656 3366 4563 
z
" transform="scale(0.015625)"/>
       </defs>
       <use xlink:href="#DejaVuSans-30"/>
       <use xlink:href="#DejaVuSans-2e" transform="translate(63.623047 0)"/>
       <use xlink:href="#DejaVuSans-36" transform="translate(95.410156 0)"/>
      </g>
     </g>
    </g>
    <g id="xtick_5">
     <g id="line2d_9">
      <path d="M 521.181818 384.48 
L 521.181818 51.84 
" clip-path="url(#p2a6d24fc85)" style="fill: none; stroke: #b0b0b0; stroke-width: 0.8; stroke-linecap: square"/>
     </g>
     <g id="line2d_10">
      <g>
       <use xlink:href="#m9a8c31f491" x="521.181818" y="384.48" style="stroke: #000000; stroke-width: 0.8"/>
      </g>
     </g>
     <g id="text_5">
      <!-- 0.8 -->
      <g transform="translate(513.230256 399.078438) scale(0.1 -0.1)">
       <defs>
        <path id="DejaVuSans-38" d="M 2034 2216 
Q 1584 2216 1326 1975 
Q 1069 1734 1069 1313 
Q 1069 891 1326 650 
Q 1584 409 2034 409 
Q 2484 409 2743 651 
Q 3003 894 3003 1313 
Q 3003 1734 2745 1975 
Q 2488 2216 2034 2216 
z
M 1403 2484 
Q 997 2584 770 2862 
Q 544 3141 544 3541 
Q 544 4100 942 4425 
Q 1341 4750 2034 4750 
Q 2731 4750 3128 4425 
Q 3525 4100 3525 3541 
Q 3525 3141 3298 2862 
Q 3072 2584 2669 2484 
Q 3125 2378 3379 2068 
Q 3634 1759 3634 1313 
Q 3634 634 3220 271 
Q 2806 -91 2034 -91 
Q 1263 -91 848 271 
Q 434 634 434 1313 
Q 434 1759 690 2068 
Q 947 2378 1403 2484 
z
M 1172 3481 
Q 1172 3119 1398 2916 
Q 1625 2713 2034 2713 
Q 2441 2713 2670 2916 
Q 2900 3119 2900 3481 
Q 2900 3844 2670 4047 
Q 2441 4250 2034 4250 
Q 1625 4250 1398 4047 
Q 1172 3844 1172 3481 
z
" transform="scale(0.015625)"/>
       </defs>
       <use xlink:href="#DejaVuSans-30"/>
       <use xlink:href="#DejaVuSans-2e" transform="translate(63.623047 0)"/>
       <use xlink:href="#DejaVuSans-38" transform="translate(95.410156 0)"/>
      </g>
     </g>
    </g>
    <g id="xtick_6">
     <g id="line2d_11">
      <path d="M 622.636364 384.48 
L 622.636364 51.84 
" clip-path="url(#p2a6d24fc85)" style="fill: none; stroke: #b0b0b0; stroke-width: 0.8; stroke-linecap: square"/>
     </g>
     <g id="line2d_12">
      <g>
       <use xlink:href="#m9a8c31f491" x="622.636364" y="384.48" style="stroke: #000000; stroke-width: 0.8"/>
      </g>
     </g>
     <g id="text_6">
      <!-- 1.0 -->
      <g transform="translate(614.684801 399.078438) scale(0.1 -0.1)">
       <defs>
        <path id="DejaVuSans-31" d="M 794 531 
L 1825 531 
L 1825 4091 
L 703 3866 
L 703 4441 
L 1819 4666 
L 2450 4666 
L 2450 531 
L 3481 531 
L 3481 0 
L 794 0 
L 794 531 
z
" transform="scale(0.015625)"/>
       </defs>
       <use xlink:href="#DejaVuSans-31"/>
       <use xlink:href="#DejaVuSans-2e" transform="translate(63.623047 0)"/>
       <use xlink:href="#DejaVuSans-30" transform="translate(95.410156 0)"/>
      </g>
     </g>
    </g>
    <g id="text_7">
     <!-- $x$ -->
     <g transform="translate(366 412.756563) scale(0.1 -0.1)">
      <defs>
       <path id="DejaVuSans-Oblique-78" d="M 3841 3500 
L 2234 1784 
L 3219 0 
L 2559 0 
L 1819 1388 
L 531 0 
L -166 0 
L 1556 1844 
L 641 3500 
L 1300 3500 
L 1972 2234 
L 3144 3500 
L 3841 3500 
z
" transform="scale(0.015625)"/>
      </defs>
      <use xlink:href="#DejaVuSans-Oblique-78" transform="translate(0 0.3125)"/>
     </g>
    </g>
   </g>
   <g id="matplotlib.axis_2">
    <g id="ytick_1">
     <g id="line2d_13">
      <path d="M 90 369.36 
L 648 369.36 
" clip-path="url(#p2a6d24fc85)" style="fill: none; stroke: #b0b0b0; stroke-width: 0.8; stroke-linecap: square"/>
     </g>
     <g id="line2d_14">
      <defs>
       <path id="m2256b8f13e" d="M 0 0 
L -3.5 0 
" style="stroke: #000000; stroke-width: 0.8"/>
      </defs>
      <g>
       <use xlink:href="#m2256b8f13e" x="90" y="369.36" style="stroke: #000000; stroke-width: 0.8"/>
      </g>
     </g>
     <g id="text_8">
      <!-- 0.00 -->
      <g transform="translate(60.734375 373.159219) scale(0.1 -0.1)">
       <use xlink:href="#DejaVuSans-30"/>
       <use xlink:href="#DejaVuSans-2e" transform="translate(63.623047 0)"/>
       <use xlink:href="#DejaVuSans-30" transform="translate(95.410156 0)"/>
       <use xlink:href="#DejaVuSans-30" transform="translate(159.033203 0)"/>
      </g>
     </g>
    </g>
    <g id="ytick_2">
     <g id="line2d_15">
      <path d="M 90 308.88 
L 648 308.88 
" clip-path="url(#p2a6d24fc85)" style="fill: none; stroke: #b0b0b0; stroke-width: 0.8; stroke-linecap: square"/>
     </g>
     <g id="line2d_16">
      <g>
       <use xlink:href="#m2256b8f13e" x="90" y="308.88" style="stroke: #000000; stroke-width: 0.8"/>
      </g>
     </g>
     <g id="text_9">
      <!-- 0.05 -->
      <g transform="translate(60.734375 312.679219) scale(0.1 -0.1)">
       <defs>
        <path id="DejaVuSans-35" d="M 691 4666 
L 3169 4666 
L 3169 4134 
L 1269 4134 
L 1269 2991 
Q 1406 3038 1543 3061 
Q 1681 3084 1819 3084 
Q 2600 3084 3056 2656 
Q 3513 2228 3513 1497 
Q 3513 744 3044 326 
Q 2575 -91 1722 -91 
Q 1428 -91 1123 -41 
Q 819 9 494 109 
L 494 744 
Q 775 591 1075 516 
Q 1375 441 1709 441 
Q 2250 441 2565 725 
Q 2881 1009 2881 1497 
Q 2881 1984 2565 2268 
Q 2250 2553 1709 2553 
Q 1456 2553 1204 2497 
Q 953 2441 691 2322 
L 691 4666 
z
" transform="scale(0.015625)"/>
       </defs>
       <use xlink:href="#DejaVuSans-30"/>
       <use xlink:href="#DejaVuSans-2e" transform="translate(63.623047 0)"/>
       <use xlink:href="#DejaVuSans-30" transform="translate(95.410156 0)"/>
       <use xlink:href="#DejaVuSans-35" transform="translate(159.033203 0)"/>
      </g>
     </g>
    </g>
    <g id="ytick_3">
     <g id="line2d_17">
      <path d="M 90 248.4 
L 648 248.4 
" clip-path="url(#p2a6d24fc85)" style="fill: none; stroke: #b0b0b0; stroke-width: 0.8; stroke-linecap: square"/>
     </g>
     <g id="line2d_18">
      <g>
       <use xlink:href="#m2256b8f13e" x="90" y="248.4" style="stroke: #000000; stroke-width: 0.8"/>
      </g>
     </g>
     <g id="text_10">
      <!-- 0.10 -->
      <g transform="translate(60.734375 252.199219) scale(0.1 -0.1)">
       <use xlink:href="#DejaVuSans-30"/>
       <use xlink:href="#DejaVuSans-2e" transform="translate(63.623047 0)"/>
       <use xlink:href="#DejaVuSans-31" transform="translate(95.410156 0)"/>
       <use xlink:href="#DejaVuSans-30" transform="translate(159.033203 0)"/>
      </g>
     </g>
    </g>
    <g id="ytick_4">
     <g id="line2d_19">
      <path d="M 90 187.92 
L 648 187.92 
" clip-path="url(#p2a6d24fc85)" style="fill: none; stroke: #b0b0b0; stroke-width: 0.8; stroke-linecap: square"/>
     </g>
     <g id="line2d_20">
      <g>
       <use xlink:href="#m2256b8f13e" x="90" y="187.92" style="stroke: #000000; stroke-width: 0.8"/>
      </g>
     </g>
     <g id="text_11">
      <!-- 0.15 -->
      <g transform="translate(60.734375 191.719219) scale(0.1 -0.1)">
       <use xlink:href="#DejaVuSans-30"/>
       <use xlink:href="#DejaVuSans-2e" transform="translate(63.623047 0)"/>
       <use xlink:href="#DejaVuSans-31" transform="translate(95.410156 0)"/>
       <use xlink:href="#DejaVuSans-35" transform="translate(159.033203 0)"/>
      </g>
     </g>
    </g>
    <g id="ytick_5">
     <g id="line2d_21">
      <path d="M 90 127.44 
L 648 127.44 
" clip-path="url(#p2a6d24fc85)" style="fill: none; stroke: #b0b0b0; stroke-width: 0.8; stroke-linecap: square"/>
     </g>
     <g id="line2d_22">
      <g>
       <use xlink:href="#m2256b8f13e" x="90" y="127.44" style="stroke: #000000; stroke-width: 0.8"/>
      </g>
     </g>
     <g id="text_12">
      <!-- 0.20 -->
      <g transform="translate(60.734375 131.239219) scale(0.1 -0.1)">
       <use xlink:href="#DejaVuSans-30"/>
       <use xlink:href="#DejaVuSans-2e" transform="translate(63.623047 0)"/>
       <use xlink:href="#DejaVuSans-32" transform="translate(95.410156 0)"/>
       <use xlink:href="#DejaVuSans-30" transform="translate(159.033203 0)"/>
      </g>
     </g>
    </g>
    <g id="ytick_6">
     <g id="line2d_23">
      <path d="M 90 66.96 
L 648 66.96 
" clip-path="url(#p2a6d24fc85)" style="fill: none; stroke: #b0b0b0; stroke-width: 0.8; stroke-linecap: square"/>
     </g>
     <g id="line2d_24">
      <g>
       <use xlink:href="#m2256b8f13e" x="90" y="66.96" style="stroke: #000000; stroke-width: 0.8"/>
      </g>
     </g>
     <g id="text_13">
      <!-- 0.25 -->
      <g transform="translate(60.734375 70.759219) scale(0.1 -0.1)">
       <use xlink:href="#DejaVuSans-30"/>
       <use xlink:href="#DejaVuSans-2e" transform="translate(63.623047 0)"/>
       <use xlink:href="#DejaVuSans-32" transform="translate(95.410156 0)"/>
       <use xlink:href="#DejaVuSans-35" transform="translate(159.033203 0)"/>
      </g>
     </g>
    </g>
    <g id="text_14">
     <!-- $f(x)$ -->
     <g transform="translate(54.654688 226.81) rotate(-90) scale(0.1 -0.1)">
      <defs>
       <path id="DejaVuSans-Oblique-66" d="M 3059 4863 
L 2969 4384 
L 2419 4384 
Q 2106 4384 1964 4261 
Q 1822 4138 1753 3809 
L 1691 3500 
L 2638 3500 
L 2553 3053 
L 1606 3053 
L 1013 0 
L 434 0 
L 1031 3053 
L 481 3053 
L 563 3500 
L 1113 3500 
L 1159 3744 
Q 1278 4363 1576 4613 
Q 1875 4863 2516 4863 
L 3059 4863 
z
" transform="scale(0.015625)"/>
       <path id="DejaVuSans-28" d="M 1984 4856 
Q 1566 4138 1362 3434 
Q 1159 2731 1159 2009 
Q 1159 1288 1364 580 
Q 1569 -128 1984 -844 
L 1484 -844 
Q 1016 -109 783 600 
Q 550 1309 550 2009 
Q 550 2706 781 3412 
Q 1013 4119 1484 4856 
L 1984 4856 
z
" transform="scale(0.015625)"/>
       <path id="DejaVuSans-29" d="M 513 4856 
L 1013 4856 
Q 1481 4119 1714 3412 
Q 1947 2706 1947 2009 
Q 1947 1309 1714 600 
Q 1481 -109 1013 -844 
L 513 -844 
Q 928 -128 1133 580 
Q 1338 1288 1338 2009 
Q 1338 2731 1133 3434 
Q 928 4138 513 4856 
z
" transform="scale(0.015625)"/>
      </defs>
      <use xlink:href="#DejaVuSans-Oblique-66" transform="translate(0 0.015625)"/>
      <use xlink:href="#DejaVuSans-28" transform="translate(35.205078 0.015625)"/>
      <use xlink:href="#DejaVuSans-Oblique-78" transform="translate(74.21875 0.015625)"/>
      <use xlink:href="#DejaVuSans-29" transform="translate(133.398438 0.015625)"/>
     </g>
    </g>
   </g>
   <g id="line2d_25">
    <path d="M 115.363636 369.36 
L 123.289773 350.756957 
L 131.215909 332.744077 
L 139.142045 315.321604 
L 147.068182 298.489173 
L 154.994318 282.247269 
L 162.920455 266.595771 
L 170.846591 251.53492 
L 178.772727 237.064838 
L 186.698864 223.184678 
L 194.625 209.896013 
L 202.551136 197.197632 
L 210.477273 185.089536 
L 218.403409 173.572934 
L 226.329545 162.645408 
L 234.255682 152.310586 
L 242.181818 142.564838 
L 250.107955 133.410586 
L 258.034091 124.845408 
L 265.960227 116.872934 
L 273.886364 109.489536 
L 281.8125 102.697632 
L 289.738636 96.496013 
L 297.664773 90.884678 
L 305.590909 85.864838 
L 313.517045 81.435283 
L 321.443182 77.596013 
L 329.369318 74.347027 
L 337.295455 71.689536 
L 345.221591 69.62233 
L 353.147727 68.145408 
L 361.073864 67.259981 
L 369 66.964838 
L 376.926136 67.259981 
L 384.852273 68.145408 
L 392.778409 69.62233 
L 400.704545 71.689536 
L 408.630682 74.347027 
L 416.556818 77.596013 
L 424.482955 81.435283 
L 432.409091 85.864838 
L 440.335227 90.884678 
L 448.261364 96.496013 
L 456.1875 102.697632 
L 464.113636 109.489536 
L 472.039773 116.872934 
L 479.965909 124.845408 
L 487.892045 133.410586 
L 495.818182 142.564838 
L 503.744318 152.310586 
L 511.670455 162.645408 
L 519.596591 173.572934 
L 527.522727 185.089536 
L 535.448864 197.197632 
L 543.375 209.896013 
L 551.301136 223.184678 
L 559.227273 237.064838 
L 567.153409 251.53492 
L 575.079545 266.595771 
L 583.005682 282.247269 
L 590.931818 298.489173 
L 598.857955 315.321604 
L 606.784091 332.744077 
L 614.710227 350.756957 
L 622.636364 369.36 
" clip-path="url(#p2a6d24fc85)" style="fill: none; stroke: #9467bd; stroke-width: 1.5; stroke-linecap: square"/>
    <defs>
     <path id="md4a3707965" d="M 0 2.5 
C 0.663008 2.5 1.29895 2.236584 1.767767 1.767767 
C 2.236584 1.29895 2.5 0.663008 2.5 0 
C 2.5 -0.663008 2.236584 -1.29895 1.767767 -1.767767 
C 1.29895 -2.236584 0.663008 -2.5 0 -2.5 
C -0.663008 -2.5 -1.29895 -2.236584 -1.767767 -1.767767 
C -2.236584 -1.29895 -2.5 -0.663008 -2.5 0 
C -2.5 0.663008 -2.236584 1.29895 -1.767767 1.767767 
C -1.29895 2.236584 -0.663008 2.5 0 2.5 
z
" style="stroke: #9467bd"/>
    </defs>
    <g clip-path="url(#p2a6d24fc85)">
     <use xlink:href="#md4a3707965" x="115.363636" y="369.36" style="fill: #9467bd; stroke: #9467bd"/>
     <use xlink:href="#md4a3707965" x="123.289773" y="350.756957" style="fill: #9467bd; stroke: #9467bd"/>
     <use xlink:href="#md4a3707965" x="131.215909" y="332.744077" style="fill: #9467bd; stroke: #9467bd"/>
     <use xlink:href="#md4a3707965" x="139.142045" y="315.321604" style="fill: #9467bd; stroke: #9467bd"/>
     <use xlink:href="#md4a3707965" x="147.068182" y="298.489173" style="fill: #9467bd; stroke: #9467bd"/>
     <use xlink:href="#md4a3707965" x="154.994318" y="282.247269" style="fill: #9467bd; stroke: #9467bd"/>
     <use xlink:href="#md4a3707965" x="162.920455" y="266.595771" style="fill: #9467bd; stroke: #9467bd"/>
     <use xlink:href="#md4a3707965" x="170.846591" y="251.53492" style="fill: #9467bd; stroke: #9467bd"/>
     <use xlink:href="#md4a3707965" x="178.772727" y="237.064838" style="fill: #9467bd; stroke: #9467bd"/>
     <use xlink:href="#md4a3707965" x="186.698864" y="223.184678" style="fill: #9467bd; stroke: #9467bd"/>
     <use xlink:href="#md4a3707965" x="194.625" y="209.896013" style="fill: #9467bd; stroke: #9467bd"/>
     <use xlink:href="#md4a3707965" x="202.551136" y="197.197632" style="fill: #9467bd; stroke: #9467bd"/>
     <use xlink:href="#md4a3707965" x="210.477273" y="185.089536" style="fill: #9467bd; stroke: #9467bd"/>
     <use xlink:href="#md4a3707965" x="218.403409" y="173.572934" style="fill: #9467bd; stroke: #9467bd"/>
     <use xlink:href="#md4a3707965" x="226.329545" y="162.645408" style="fill: #9467bd; stroke: #9467bd"/>
     <use xlink:href="#md4a3707965" x="234.255682" y="152.310586" style="fill: #9467bd; stroke: #9467bd"/>
     <use xlink:href="#md4a3707965" x="242.181818" y="142.564838" style="fill: #9467bd; stroke: #9467bd"/>
     <use xlink:href="#md4a3707965" x="250.107955" y="133.410586" style="fill: #9467bd; stroke: #9467bd"/>
     <use xlink:href="#md4a3707965" x="258.034091" y="124.845408" style="fill: #9467bd; stroke: #9467bd"/>
     <use xlink:href="#md4a3707965" x="265.960227" y="116.872934" style="fill: #9467bd; stroke: #9467bd"/>
     <use xlink:href="#md4a3707965" x="273.886364" y="109.489536" style="fill: #9467bd; stroke: #9467bd"/>
     <use xlink:href="#md4a3707965" x="281.8125" y="102.697632" style="fill: #9467bd; stroke: #9467bd"/>
     <use xlink:href="#md4a3707965" x="289.738636" y="96.496013" style="fill: #9467bd; stroke: #9467bd"/>
     <use xlink:href="#md4a3707965" x="297.664773" y="90.884678" style="fill: #9467bd; stroke: #9467bd"/>
     <use xlink:href="#md4a3707965" x="305.590909" y="85.864838" style="fill: #9467bd; stroke: #9467bd"/>
     <use xlink:href="#md4a3707965" x="313.517045" y="81.435283" style="fill: #9467bd; stroke: #9467bd"/>
     <use xlink:href="#md4a3707965" x="321.443182" y="77.596013" style="fill: #9467bd; stroke: #9467bd"/>
     <use xlink:href="#md4a3707965" x="329.369318" y="74.347027" style="fill: #9467bd; stroke: #9467bd"/>
     <use xlink:href="#md4a3707965" x="337.295455" y="71.689536" style="fill: #9467bd; stroke: #9467bd"/>
     <use xlink:href="#md4a3707965" x="345.221591" y="69.62233" style="fill: #9467bd; stroke: #9467bd"/>
     <use xlink:href="#md4a3707965" x="353.147727" y="68.145408" style="fill: #9467bd; stroke: #9467bd"/>
     <use xlink:href="#md4a3707965" x="361.073864" y="67.259981" style="fill: #9467bd; stroke: #9467bd"/>
     <use xlink:href="#md4a3707965" x="369" y="66.964838" style="fill: #9467bd; stroke: #9467bd"/>
     <use xlink:href="#md4a3707965" x="376.926136" y="67.259981" style="fill: #9467bd; stroke: #9467bd"/>
     <use xlink:href="#md4a3707965" x="384.852273" y="68.145408" style="fill: #9467bd; stroke: #9467bd"/>
     <use xlink:href="#md4a3707965" x="392.778409" y="69.62233" style="fill: #9467bd; stroke: #9467bd"/>
     <use xlink:href="#md4a3707965" x="400.704545" y="71.689536" style="fill: #9467bd; stroke: #9467bd"/>
     <use xlink:href="#md4a3707965" x="408.630682" y="74.347027" style="fill: #9467bd; stroke: #9467bd"/>
     <use xlink:href="#md4a3707965" x="416.556818" y="77.596013" style="fill: #9467bd; stroke: #9467bd"/>
     <use xlink:href="#md4a3707965" x="424.482955" y="81.435283" style="fill: #9467bd; stroke: #9467bd"/>
     <use xlink:href="#md4a3707965" x="432.409091" y="85.864838" style="fill: #9467bd; stroke: #9467bd"/>
     <use xlink:href="#md4a3707965" x="440.335227" y="90.884678" style="fill: #9467bd; stroke: #9467bd"/>
     <use xlink:href="#md4a3707965" x="448.261364" y="96.496013" style="fill: #9467bd; stroke: #9467bd"/>
     <use xlink:href="#md4a3707965" x="456.1875" y="102.697632" style="fill: #9467bd; stroke: #9467bd"/>
     <use xlink:href="#md4a3707965" x="464.113636" y="109.489536" style="fill: #9467bd; stroke: #9467bd"/>
     <use xlink:href="#md4a3707965" x="472.039773" y="116.872934" style="fill: #9467bd; stroke: #9467bd"/>
     <use xlink:href="#md4a3707965" x="479.965909" y="124.845408" style="fill: #9467bd; stroke: #9467bd"/>
     <use xlink:href="#md4a3707965" x="487.892045" y="133.410586" style="fill: #9467bd; stroke: #9467bd"/>
     <use xlink:href="#md4a3707965" x="495.818182" y="142.564838" style="fill: #9467bd; stroke: #9467bd"/>
     <use xlink:href="#md4a3707965" x="503.744318" y="152.310586" style="fill: #9467bd; stroke: #9467bd"/>
     <use xlink:href="#md4a3707965" x="511.670455" y="162.645408" style="fill: #9467bd; stroke: #9467bd"/>
     <use xlink:href="#md4a3707965" x="519.596591" y="173.572934" style="fill: #9467bd; stroke: #9467bd"/>
     <use xlink:href="#md4a3707965" x="527.522727" y="185.089536" style="fill: #9467bd; stroke: #9467bd"/>
     <use xlink:href="#md4a3707965" x="535.448864" y="197.197632" style="fill: #9467bd; stroke: #9467bd"/>
     <use xlink:href="#md4a3707965" x="543.375" y="209.896013" style="fill: #9467bd; stroke: #9467bd"/>
     <use xlink:href="#md4a3707965" x="551.301136" y="223.184678" style="fill: #9467bd; stroke: #9467bd"/>
     <use xlink:href="#md4a3707965" x="559.227273" y="237.064838" style="fill: #9467bd; stroke: #9467bd"/>
     <use xlink:href="#md4a3707965" x="567.153409" y="251.53492" style="fill: #9467bd; stroke: #9467bd"/>
     <use xlink:href="#md4a3707965" x="575.079545" y="266.595771" style="fill: #9467bd; stroke: #9467bd"/>
     <use xlink:href="#md4a3707965" x="583.005682" y="282.247269" style="fill: #9467bd; stroke: #9467bd"/>
     <use xlink:href="#md4a3707965" x="590.931818" y="298.489173" style="fill: #9467bd; stroke: #9467bd"/>
     <use xlink:href="#md4a3707965" x="598.857955" y="315.321604" style="fill: #9467bd; stroke: #9467bd"/>
     <use xlink:href="#md4a3707965" x="606.784091" y="332.744077" style="fill: #9467bd; stroke: #9467bd"/>
     <use xlink:href="#md4a3707965" x="614.710227" y="350.756957" style="fill: #9467bd; stroke: #9467bd"/>
     <use xlink:href="#md4a3707965" x="622.636364" y="369.36" style="fill: #9467bd; stroke: #9467bd"/>
    </g>
   </g>
   <g id="line2d_26">
    <path d="M 115.363636 369.36 
L 123.289773 351.406149 
L 131.215909 334.024802 
L 139.142045 317.22503 
L 147.068182 300.982884 
L 154.994318 285.322072 
L 162.920455 270.217555 
L 170.846591 255.693404 
L 178.772727 241.727846 
L 186.698864 228.343622 
L 194.625 215.518234 
L 202.551136 203.272243 
L 210.477273 191.582669 
L 218.403409 180.476122 
L 226.329545 169.9272 
L 234.255682 159.958886 
L 242.181818 150.549408 
L 250.107955 141.721747 
L 258.034091 133.454131 
L 265.960227 125.765914 
L 273.886364 118.635322 
L 281.8125 112.087757 
L 289.738636 106.096608 
L 297.664773 100.684858 
L 305.590909 95.831942 
L 313.517045 91.562054 
L 321.443182 87.849792 
L 329.369318 84.718138 
L 337.295455 82.145318 
L 345.221591 80.154317 
L 353.147727 78.720941 
L 361.073864 77.870592 
L 369 77.579078 
L 376.926136 77.870592 
L 384.852273 78.720941 
L 392.778409 80.154317 
L 400.704545 82.145318 
L 408.630682 84.718138 
L 416.556818 87.849792 
L 424.482955 91.562054 
L 432.409091 95.831942 
L 440.335227 100.684858 
L 448.261364 106.096608 
L 456.1875 112.087757 
L 464.113636 118.635322 
L 472.039773 125.765914 
L 479.965909 133.454131 
L 487.892045 141.721747 
L 495.818182 150.549408 
L 503.744318 159.958886 
L 511.670455 169.9272 
L 519.596591 180.476122 
L 527.522727 191.582669 
L 535.448864 203.272243 
L 543.375 215.518234 
L 551.301136 228.343622 
L 559.227273 241.727846 
L 567.153409 255.693404 
L 575.079545 270.217555 
L 583.005682 285.322072 
L 590.931818 300.982884 
L 598.857955 317.22503 
L 606.784091 334.024802 
L 614.710227 351.406149 
L 622.636364 369.36 
" clip-path="url(#p2a6d24fc85)" style="fill: none; stroke-dasharray: 5.55,2.4; stroke-dashoffset: 0; stroke: #ff7f0e; stroke-width: 1.5"/>
    <defs>
     <path id="m19fb9ebeca" d="M -2.5 2.5 
L 2.5 2.5 
L 2.5 -2.5 
L -2.5 -2.5 
z
" style="stroke: #ff7f0e; stroke-linejoin: miter"/>
    </defs>
    <g clip-path="url(#p2a6d24fc85)">
     <use xlink:href="#m19fb9ebeca" x="115.363636" y="369.36" style="fill: #ff7f0e; stroke: #ff7f0e; stroke-linejoin: miter"/>
     <use xlink:href="#m19fb9ebeca" x="123.289773" y="351.406149" style="fill: #ff7f0e; stroke: #ff7f0e; stroke-linejoin: miter"/>
     <use xlink:href="#m19fb9ebeca" x="131.215909" y="334.024802" style="fill: #ff7f0e; stroke: #ff7f0e; stroke-linejoin: miter"/>
     <use xlink:href="#m19fb9ebeca" x="139.142045" y="317.22503" style="fill: #ff7f0e; stroke: #ff7f0e; stroke-linejoin: miter"/>
     <use xlink:href="#m19fb9ebeca" x="147.068182" y="300.982884" style="fill: #ff7f0e; stroke: #ff7f0e; stroke-linejoin: miter"/>
     <use xlink:href="#m19fb9ebeca" x="154.994318" y="285.322072" style="fill: #ff7f0e; stroke: #ff7f0e; stroke-linejoin: miter"/>
     <use xlink:href="#m19fb9ebeca" x="162.920455" y="270.217555" style="fill: #ff7f0e; stroke: #ff7f0e; stroke-linejoin: miter"/>
     <use xlink:href="#m19fb9ebeca" x="170.846591" y="255.693404" style="fill: #ff7f0e; stroke: #ff7f0e; stroke-linejoin: miter"/>
     <use xlink:href="#m19fb9ebeca" x="178.772727" y="241.727846" style="fill: #ff7f0e; stroke: #ff7f0e; stroke-linejoin: miter"/>
     <use xlink:href="#m19fb9ebeca" x="186.698864" y="228.343622" style="fill: #ff7f0e; stroke: #ff7f0e; stroke-linejoin: miter"/>
     <use xlink:href="#m19fb9ebeca" x="194.625" y="215.518234" style="fill: #ff7f0e; stroke: #ff7f0e; stroke-linejoin: miter"/>
     <use xlink:href="#m19fb9ebeca" x="202.551136" y="203.272243" style="fill: #ff7f0e; stroke: #ff7f0e; stroke-linejoin: miter"/>
     <use xlink:href="#m19fb9ebeca" x="210.477273" y="191.582669" style="fill: #ff7f0e; stroke: #ff7f0e; stroke-linejoin: miter"/>
     <use xlink:href="#m19fb9ebeca" x="218.403409" y="180.476122" style="fill: #ff7f0e; stroke: #ff7f0e; stroke-linejoin: miter"/>
     <use xlink:href="#m19fb9ebeca" x="226.329545" y="169.9272" style="fill: #ff7f0e; stroke: #ff7f0e; stroke-linejoin: miter"/>
     <use xlink:href="#m19fb9ebeca" x="234.255682" y="159.958886" style="fill: #ff7f0e; stroke: #ff7f0e; stroke-linejoin: miter"/>
     <use xlink:href="#m19fb9ebeca" x="242.181818" y="150.549408" style="fill: #ff7f0e; stroke: #ff7f0e; stroke-linejoin: miter"/>
     <use xlink:href="#m19fb9ebeca" x="250.107955" y="141.721747" style="fill: #ff7f0e; stroke: #ff7f0e; stroke-linejoin: miter"/>
     <use xlink:href="#m19fb9ebeca" x="258.034091" y="133.454131" style="fill: #ff7f0e; stroke: #ff7f0e; stroke-linejoin: miter"/>
     <use xlink:href="#m19fb9ebeca" x="265.960227" y="125.765914" style="fill: #ff7f0e; stroke: #ff7f0e; stroke-linejoin: miter"/>
     <use xlink:href="#m19fb9ebeca" x="273.886364" y="118.635322" style="fill: #ff7f0e; stroke: #ff7f0e; stroke-linejoin: miter"/>
     <use xlink:href="#m19fb9ebeca" x="281.8125" y="112.087757" style="fill: #ff7f0e; stroke: #ff7f0e; stroke-linejoin: miter"/>
     <use xlink:href="#m19fb9ebeca" x="289.738636" y="106.096608" style="fill: #ff7f0e; stroke: #ff7f0e; stroke-linejoin: miter"/>
     <use xlink:href="#m19fb9ebeca" x="297.664773" y="100.684858" style="fill: #ff7f0e; stroke: #ff7f0e; stroke-linejoin: miter"/>
     <use xlink:href="#m19fb9ebeca" x="305.590909" y="95.831942" style="fill: #ff7f0e; stroke: #ff7f0e; stroke-linejoin: miter"/>
     <use xlink:href="#m19fb9ebeca" x="313.517045" y="91.562054" style="fill: #ff7f0e; stroke: #ff7f0e; stroke-linejoin: miter"/>
     <use xlink:href="#m19fb9ebeca" x="321.443182" y="87.849792" style="fill: #ff7f0e; stroke: #ff7f0e; stroke-linejoin: miter"/>
     <use xlink:href="#m19fb9ebeca" x="329.369318" y="84.718138" style="fill: #ff7f0e; stroke: #ff7f0e; stroke-linejoin: miter"/>
     <use xlink:href="#m19fb9ebeca" x="337.295455" y="82.145318" style="fill: #ff7f0e; stroke: #ff7f0e; stroke-linejoin: miter"/>
     <use xlink:href="#m19fb9ebeca" x="345.221591" y="80.154317" style="fill: #ff7f0e; stroke: #ff7f0e; stroke-linejoin: miter"/>
     <use xlink:href="#m19fb9ebeca" x="353.147727" y="78.720941" style="fill: #ff7f0e; stroke: #ff7f0e; stroke-linejoin: miter"/>
     <use xlink:href="#m19fb9ebeca" x="361.073864" y="77.870592" style="fill: #ff7f0e; stroke: #ff7f0e; stroke-linejoin: miter"/>
     <use xlink:href="#m19fb9ebeca" x="369" y="77.579078" style="fill: #ff7f0e; stroke: #ff7f0e; stroke-linejoin: miter"/>
     <use xlink:href="#m19fb9ebeca" x="376.926136" y="77.870592" style="fill: #ff7f0e; stroke: #ff7f0e; stroke-linejoin: miter"/>
     <use xlink:href="#m19fb9ebeca" x="384.852273" y="78.720941" style="fill: #ff7f0e; stroke: #ff7f0e; stroke-linejoin: miter"/>
     <use xlink:href="#m19fb9ebeca" x="392.778409" y="80.154317" style="fill: #ff7f0e; stroke: #ff7f0e; stroke-linejoin: miter"/>
     <use xlink:href="#m19fb9ebeca" x="400.704545" y="82.145318" style="fill: #ff7f0e; stroke: #ff7f0e; stroke-linejoin: miter"/>
     <use xlink:href="#m19fb9ebeca" x="408.630682" y="84.718138" style="fill: #ff7f0e; stroke: #ff7f0e; stroke-linejoin: miter"/>
     <use xlink:href="#m19fb9ebeca" x="416.556818" y="87.849792" style="fill: #ff7f0e; stroke: #ff7f0e; stroke-linejoin: miter"/>
     <use xlink:href="#m19fb9ebeca" x="424.482955" y="91.562054" style="fill: #ff7f0e; stroke: #ff7f0e; stroke-linejoin: miter"/>
     <use xlink:href="#m19fb9ebeca" x="432.409091" y="95.831942" style="fill: #ff7f0e; stroke: #ff7f0e; stroke-linejoin: miter"/>
     <use xlink:href="#m19fb9ebeca" x="440.335227" y="100.684858" style="fill: #ff7f0e; stroke: #ff7f0e; stroke-linejoin: miter"/>
     <use xlink:href="#m19fb9ebeca" x="448.261364" y="106.096608" style="fill: #ff7f0e; stroke: #ff7f0e; stroke-linejoin: miter"/>
     <use xlink:href="#m19fb9ebeca" x="456.1875" y="112.087757" style="fill: #ff7f0e; stroke: #ff7f0e; stroke-linejoin: miter"/>
     <use xlink:href="#m19fb9ebeca" x="464.113636" y="118.635322" style="fill: #ff7f0e; stroke: #ff7f0e; stroke-linejoin: miter"/>
     <use xlink:href="#m19fb9ebeca" x="472.039773" y="125.765914" style="fill: #ff7f0e; stroke: #ff7f0e; stroke-linejoin: miter"/>
     <use xlink:href="#m19fb9ebeca" x="479.965909" y="133.454131" style="fill: #ff7f0e; stroke: #ff7f0e; stroke-linejoin: miter"/>
     <use xlink:href="#m19fb9ebeca" x="487.892045" y="141.721747" style="fill: #ff7f0e; stroke: #ff7f0e; stroke-linejoin: miter"/>
     <use xlink:href="#m19fb9ebeca" x="495.818182" y="150.549408" style="fill: #ff7f0e; stroke: #ff7f0e; stroke-linejoin: miter"/>
     <use xlink:href="#m19fb9ebeca" x="503.744318" y="159.958886" style="fill: #ff7f0e; stroke: #ff7f0e; stroke-linejoin: miter"/>
     <use xlink:href="#m19fb9ebeca" x="511.670455" y="169.9272" style="fill: #ff7f0e; stroke: #ff7f0e; stroke-linejoin: miter"/>
     <use xlink:href="#m19fb9ebeca" x="519.596591" y="180.476122" style="fill: #ff7f0e; stroke: #ff7f0e; stroke-linejoin: miter"/>
     <use xlink:href="#m19fb9ebeca" x="527.522727" y="191.582669" style="fill: #ff7f0e; stroke: #ff7f0e; stroke-linejoin: miter"/>
     <use xlink:href="#m19fb9ebeca" x="535.448864" y="203.272243" style="fill: #ff7f0e; stroke: #ff7f0e; stroke-linejoin: miter"/>
     <use xlink:href="#m19fb9ebeca" x="543.375" y="215.518234" style="fill: #ff7f0e; stroke: #ff7f0e; stroke-linejoin: miter"/>
     <use xlink:href="#m19fb9ebeca" x="551.301136" y="228.343622" style="fill: #ff7f0e; stroke: #ff7f0e; stroke-linejoin: miter"/>
     <use xlink:href="#m19fb9ebeca" x="559.227273" y="241.727846" style="fill: #ff7f0e; stroke: #ff7f0e; stroke-linejoin: miter"/>
     <use xlink:href="#m19fb9ebeca" x="567.153409" y="255.693404" style="fill: #ff7f0e; stroke: #ff7f0e; stroke-linejoin: miter"/>
     <use xlink:href="#m19fb9ebeca" x="575.079545" y="270.217555" style="fill: #ff7f0e; stroke: #ff7f0e; stroke-linejoin: miter"/>
     <use xlink:href="#m19fb9ebeca" x="583.005682" y="285.322072" style="fill: #ff7f0e; stroke: #ff7f0e; stroke-linejoin: miter"/>
     <use xlink:href="#m19fb9ebeca" x="590.931818" y="300.982884" style="fill: #ff7f0e; stroke: #ff7f0e; stroke-linejoin: miter"/>
     <use xlink:href="#m19fb9ebeca" x="598.857955" y="317.22503" style="fill: #ff7f0e; stroke: #ff7f0e; stroke-linejoin: miter"/>
     <use xlink:href="#m19fb9ebeca" x="606.784091" y="334.024802" style="fill: #ff7f0e; stroke: #ff7f0e; stroke-linejoin: miter"/>
     <use xlink:href="#m19fb9ebeca" x="614.710227" y="351.406149" style="fill: #ff7f0e; stroke: #ff7f0e; stroke-linejoin: miter"/>
     <use xlink:href="#m19fb9ebeca" x="622.636364" y="369.36" style="fill: #ff7f0e; stroke: #ff7f0e; stroke-linejoin: miter"/>
    </g>
   </g>
   <g id="line2d_27">
    <path d="M 115.363636 369.36 
L 123.289773 350.762037 
L 131.215909 332.741537 
L 139.142045 315.325596 
L 147.068182 298.48506 
L 154.994318 282.246906 
L 162.920455 266.591537 
L 170.846591 251.532138 
L 178.772727 237.06 
L 186.698864 223.18105 
L 194.625 209.891174 
L 202.551136 197.194003 
L 210.477273 185.084698 
L 218.403409 173.568096 
L 226.329545 162.64057 
L 234.255682 152.305747 
L 242.181818 142.56 
L 250.107955 133.405747 
L 258.034091 124.841779 
L 265.960227 116.868096 
L 273.886364 109.484698 
L 281.8125 102.694003 
L 289.738636 96.491174 
L 297.664773 90.88105 
L 305.590909 85.86 
L 313.517045 81.430445 
L 321.443182 77.591174 
L 329.369318 74.343398 
L 337.295455 71.684698 
L 345.221591 69.618701 
L 353.147727 68.141779 
L 361.073864 67.256352 
L 369 66.96 
L 376.926136 67.256352 
L 384.852273 68.141779 
L 392.778409 69.618701 
L 400.704545 71.684698 
L 408.630682 74.343398 
L 416.556818 77.591174 
L 424.482955 81.430445 
L 432.409091 85.86 
L 440.335227 90.88105 
L 448.261364 96.491174 
L 456.1875 102.694003 
L 464.113636 109.484698 
L 472.039773 116.868096 
L 479.965909 124.841779 
L 487.892045 133.405747 
L 495.818182 142.56 
L 503.744318 152.305747 
L 511.670455 162.64057 
L 519.596591 173.568096 
L 527.522727 185.084698 
L 535.448864 197.194003 
L 543.375 209.891174 
L 551.301136 223.18105 
L 559.227273 237.06 
L 567.153409 251.532138 
L 575.079545 266.591537 
L 583.005682 282.246906 
L 590.931818 298.48506 
L 598.857955 315.325596 
L 606.784091 332.741537 
L 614.710227 350.762037 
L 622.636364 369.36 
" clip-path="url(#p2a6d24fc85)" style="fill: none; stroke-dasharray: 9.6,2.4,1.5,2.4; stroke-dashoffset: 0; stroke: #2ca02c; stroke-width: 1.5"/>
    <defs>
     <path id="m370820c6d1" d="M 0 -2.5 
L -2.5 2.5 
L 2.5 2.5 
z
" style="stroke: #2ca02c; stroke-linejoin: miter"/>
    </defs>
    <g clip-path="url(#p2a6d24fc85)">
     <use xlink:href="#m370820c6d1" x="115.363636" y="369.36" style="fill: #2ca02c; stroke: #2ca02c; stroke-linejoin: miter"/>
     <use xlink:href="#m370820c6d1" x="123.289773" y="350.762037" style="fill: #2ca02c; stroke: #2ca02c; stroke-linejoin: miter"/>
     <use xlink:href="#m370820c6d1" x="131.215909" y="332.741537" style="fill: #2ca02c; stroke: #2ca02c; stroke-linejoin: miter"/>
     <use xlink:href="#m370820c6d1" x="139.142045" y="315.325596" style="fill: #2ca02c; stroke: #2ca02c; stroke-linejoin: miter"/>
     <use xlink:href="#m370820c6d1" x="147.068182" y="298.48506" style="fill: #2ca02c; stroke: #2ca02c; stroke-linejoin: miter"/>
     <use xlink:href="#m370820c6d1" x="154.994318" y="282.246906" style="fill: #2ca02c; stroke: #2ca02c; stroke-linejoin: miter"/>
     <use xlink:href="#m370820c6d1" x="162.920455" y="266.591537" style="fill: #2ca02c; stroke: #2ca02c; stroke-linejoin: miter"/>
     <use xlink:href="#m370820c6d1" x="170.846591" y="251.532138" style="fill: #2ca02c; stroke: #2ca02c; stroke-linejoin: miter"/>
     <use xlink:href="#m370820c6d1" x="178.772727" y="237.06" style="fill: #2ca02c; stroke: #2ca02c; stroke-linejoin: miter"/>
     <use xlink:href="#m370820c6d1" x="186.698864" y="223.18105" style="fill: #2ca02c; stroke: #2ca02c; stroke-linejoin: miter"/>
     <use xlink:href="#m370820c6d1" x="194.625" y="209.891174" style="fill: #2ca02c; stroke: #2ca02c; stroke-linejoin: miter"/>
     <use xlink:href="#m370820c6d1" x="202.551136" y="197.194003" style="fill: #2ca02c; stroke: #2ca02c; stroke-linejoin: miter"/>
     <use xlink:href="#m370820c6d1" x="210.477273" y="185.084698" style="fill: #2ca02c; stroke: #2ca02c; stroke-linejoin: miter"/>
     <use xlink:href="#m370820c6d1" x="218.403409" y="173.568096" style="fill: #2ca02c; stroke: #2ca02c; stroke-linejoin: miter"/>
     <use xlink:href="#m370820c6d1" x="226.329545" y="162.64057" style="fill: #2ca02c; stroke: #2ca02c; stroke-linejoin: miter"/>
     <use xlink:href="#m370820c6d1" x="234.255682" y="152.305747" style="fill: #2ca02c; stroke: #2ca02c; stroke-linejoin: miter"/>
     <use xlink:href="#m370820c6d1" x="242.181818" y="142.56" style="fill: #2ca02c; stroke: #2ca02c; stroke-linejoin: miter"/>
     <use xlink:href="#m370820c6d1" x="250.107955" y="133.405747" style="fill: #2ca02c; stroke: #2ca02c; stroke-linejoin: miter"/>
     <use xlink:href="#m370820c6d1" x="258.034091" y="124.841779" style="fill: #2ca02c; stroke: #2ca02c; stroke-linejoin: miter"/>
     <use xlink:href="#m370820c6d1" x="265.960227" y="116.868096" style="fill: #2ca02c; stroke: #2ca02c; stroke-linejoin: miter"/>
     <use xlink:href="#m370820c6d1" x="273.886364" y="109.484698" style="fill: #2ca02c; stroke: #2ca02c; stroke-linejoin: miter"/>
     <use xlink:href="#m370820c6d1" x="281.8125" y="102.694003" style="fill: #2ca02c; stroke: #2ca02c; stroke-linejoin: miter"/>
     <use xlink:href="#m370820c6d1" x="289.738636" y="96.491174" style="fill: #2ca02c; stroke: #2ca02c; stroke-linejoin: miter"/>
     <use xlink:href="#m370820c6d1" x="297.664773" y="90.88105" style="fill: #2ca02c; stroke: #2ca02c; stroke-linejoin: miter"/>
     <use xlink:href="#m370820c6d1" x="305.590909" y="85.86" style="fill: #2ca02c; stroke: #2ca02c; stroke-linejoin: miter"/>
     <use xlink:href="#m370820c6d1" x="313.517045" y="81.430445" style="fill: #2ca02c; stroke: #2ca02c; stroke-linejoin: miter"/>
     <use xlink:href="#m370820c6d1" x="321.443182" y="77.591174" style="fill: #2ca02c; stroke: #2ca02c; stroke-linejoin: miter"/>
     <use xlink:href="#m370820c6d1" x="329.369318" y="74.343398" style="fill: #2ca02c; stroke: #2ca02c; stroke-linejoin: miter"/>
     <use xlink:href="#m370820c6d1" x="337.295455" y="71.684698" style="fill: #2ca02c; stroke: #2ca02c; stroke-linejoin: miter"/>
     <use xlink:href="#m370820c6d1" x="345.221591" y="69.618701" style="fill: #2ca02c; stroke: #2ca02c; stroke-linejoin: miter"/>
     <use xlink:href="#m370820c6d1" x="353.147727" y="68.141779" style="fill: #2ca02c; stroke: #2ca02c; stroke-linejoin: miter"/>
     <use xlink:href="#m370820c6d1" x="361.073864" y="67.256352" style="fill: #2ca02c; stroke: #2ca02c; stroke-linejoin: miter"/>
     <use xlink:href="#m370820c6d1" x="369" y="66.96" style="fill: #2ca02c; stroke: #2ca02c; stroke-linejoin: miter"/>
     <use xlink:href="#m370820c6d1" x="376.926136" y="67.256352" style="fill: #2ca02c; stroke: #2ca02c; stroke-linejoin: miter"/>
     <use xlink:href="#m370820c6d1" x="384.852273" y="68.141779" style="fill: #2ca02c; stroke: #2ca02c; stroke-linejoin: miter"/>
     <use xlink:href="#m370820c6d1" x="392.778409" y="69.618701" style="fill: #2ca02c; stroke: #2ca02c; stroke-linejoin: miter"/>
     <use xlink:href="#m370820c6d1" x="400.704545" y="71.684698" style="fill: #2ca02c; stroke: #2ca02c; stroke-linejoin: miter"/>
     <use xlink:href="#m370820c6d1" x="408.630682" y="74.343398" style="fill: #2ca02c; stroke: #2ca02c; stroke-linejoin: miter"/>
     <use xlink:href="#m370820c6d1" x="416.556818" y="77.591174" style="fill: #2ca02c; stroke: #2ca02c; stroke-linejoin: miter"/>
     <use xlink:href="#m370820c6d1" x="424.482955" y="81.430445" style="fill: #2ca02c; stroke: #2ca02c; stroke-linejoin: miter"/>
     <use xlink:href="#m370820c6d1" x="432.409091" y="85.86" style="fill: #2ca02c; stroke: #2ca02c; stroke-linejoin: miter"/>
     <use xlink:href="#m370820c6d1" x="440.335227" y="90.88105" style="fill: #2ca02c; stroke: #2ca02c; stroke-linejoin: miter"/>
     <use xlink:href="#m370820c6d1" x="448.261364" y="96.491174" style="fill: #2ca02c; stroke: #2ca02c; stroke-linejoin: miter"/>
     <use xlink:href="#m370820c6d1" x="456.1875" y="102.694003" style="fill: #2ca02c; stroke: #2ca02c; stroke-linejoin: miter"/>
     <use xlink:href="#m370820c6d1" x="464.113636" y="109.484698" style="fill: #2ca02c; stroke: #2ca02c; stroke-linejoin: miter"/>
     <use xlink:href="#m370820c6d1" x="472.039773" y="116.868096" style="fill: #2ca02c; stroke: #2ca02c; stroke-linejoin: miter"/>
     <use xlink:href="#m370820c6d1" x="479.965909" y="124.841779" style="fill: #2ca02c; stroke: #2ca02c; stroke-linejoin: miter"/>
     <use xlink:href="#m370820c6d1" x="487.892045" y="133.405747" style="fill: #2ca02c; stroke: #2ca02c; stroke-linejoin: miter"/>
     <use xlink:href="#m370820c6d1" x="495.818182" y="142.56" style="fill: #2ca02c; stroke: #2ca02c; stroke-linejoin: miter"/>
     <use xlink:href="#m370820c6d1" x="503.744318" y="152.305747" style="fill: #2ca02c; stroke: #2ca02c; stroke-linejoin: miter"/>
     <use xlink:href="#m370820c6d1" x="511.670455" y="162.64057" style="fill: #2ca02c; stroke: #2ca02c; stroke-linejoin: miter"/>
     <use xlink:href="#m370820c6d1" x="519.596591" y="173.568096" style="fill: #2ca02c; stroke: #2ca02c; stroke-linejoin: miter"/>
     <use xlink:href="#m370820c6d1" x="527.522727" y="185.084698" style="fill: #2ca02c; stroke: #2ca02c; stroke-linejoin: miter"/>
     <use xlink:href="#m370820c6d1" x="535.448864" y="197.194003" style="fill: #2ca02c; stroke: #2ca02c; stroke-linejoin: miter"/>
     <use xlink:href="#m370820c6d1" x="543.375" y="209.891174" style="fill: #2ca02c; stroke: #2ca02c; stroke-linejoin: miter"/>
     <use xlink:href="#m370820c6d1" x="551.301136" y="223.18105" style="fill: #2ca02c; stroke: #2ca02c; stroke-linejoin: miter"/>
     <use xlink:href="#m370820c6d1" x="559.227273" y="237.06" style="fill: #2ca02c; stroke: #2ca02c; stroke-linejoin: miter"/>
     <use xlink:href="#m370820c6d1" x="567.153409" y="251.532138" style="fill: #2ca02c; stroke: #2ca02c; stroke-linejoin: miter"/>
     <use xlink:href="#m370820c6d1" x="575.079545" y="266.591537" style="fill: #2ca02c; stroke: #2ca02c; stroke-linejoin: miter"/>
     <use xlink:href="#m370820c6d1" x="583.005682" y="282.246906" style="fill: #2ca02c; stroke: #2ca02c; stroke-linejoin: miter"/>
     <use xlink:href="#m370820c6d1" x="590.931818" y="298.48506" style="fill: #2ca02c; stroke: #2ca02c; stroke-linejoin: miter"/>
     <use xlink:href="#m370820c6d1" x="598.857955" y="315.325596" style="fill: #2ca02c; stroke: #2ca02c; stroke-linejoin: miter"/>
     <use xlink:href="#m370820c6d1" x="606.784091" y="332.741537" style="fill: #2ca02c; stroke: #2ca02c; stroke-linejoin: miter"/>
     <use xlink:href="#m370820c6d1" x="614.710227" y="350.762037" style="fill: #2ca02c; stroke: #2ca02c; stroke-linejoin: miter"/>
     <use xlink:href="#m370820c6d1" x="622.636364" y="369.36" style="fill: #2ca02c; stroke: #2ca02c; stroke-linejoin: miter"/>
    </g>
   </g>
   <g id="line2d_28">
    <path d="M 115.363636 369.36 
L 123.289773 350.755313 
L 131.215909 332.74125 
L 139.142045 315.317813 
L 147.068182 298.485 
L 154.994318 282.242813 
L 162.920455 266.59125 
L 170.846591 251.530312 
L 178.772727 237.06 
L 186.698864 223.180312 
L 194.625 209.89125 
L 202.551136 197.192813 
L 210.477273 185.085 
L 218.403409 173.567813 
L 226.329545 162.64125 
L 234.255682 152.305312 
L 242.181818 142.56 
L 250.107955 133.405312 
L 258.034091 124.84125 
L 265.960227 116.867812 
L 273.886364 109.485 
L 281.8125 102.692813 
L 289.738636 96.49125 
L 297.664773 90.880313 
L 305.590909 85.86 
L 313.517045 81.430312 
L 321.443182 77.59125 
L 329.369318 74.342812 
L 337.295455 71.685 
L 345.221591 69.617812 
L 353.147727 68.14125 
L 361.073864 67.255313 
L 369 66.96 
L 376.926136 67.255313 
L 384.852273 68.14125 
L 392.778409 69.617812 
L 400.704545 71.685 
L 408.630682 74.342812 
L 416.556818 77.59125 
L 424.482955 81.430312 
L 432.409091 85.86 
L 440.335227 90.880313 
L 448.261364 96.49125 
L 456.1875 102.692813 
L 464.113636 109.485 
L 472.039773 116.867812 
L 479.965909 124.84125 
L 487.892045 133.405312 
L 495.818182 142.56 
L 503.744318 152.305312 
L 511.670455 162.64125 
L 519.596591 173.567813 
L 527.522727 185.085 
L 535.448864 197.192813 
L 543.375 209.89125 
L 551.301136 223.180312 
L 559.227273 237.06 
L 567.153409 251.530312 
L 575.079545 266.59125 
L 583.005682 282.242813 
L 590.931818 298.485 
L 598.857955 315.317813 
L 606.784091 332.74125 
L 614.710227 350.755313 
L 622.636364 369.36 
" clip-path="url(#p2a6d24fc85)" style="fill: none; stroke-dasharray: 7.4,3.2; stroke-dashoffset: 0; stroke: #000000; stroke-width: 2"/>
   </g>
   <g id="patch_3">
    <path d="M 90 384.48 
L 90 51.84 
" style="fill: none; stroke: #000000; stroke-width: 0.8; stroke-linejoin: miter; stroke-linecap: square"/>
   </g>
   <g id="patch_4">
    <path d="M 648 384.48 
L 648 51.84 
" style="fill: none; stroke: #000000; stroke-width: 0.8; stroke-linejoin: miter; stroke-linecap: square"/>
   </g>
   <g id="patch_5">
    <path d="M 90 384.48 
L 648 384.48 
" style="fill: none; stroke: #000000; stroke-width: 0.8; stroke-linejoin: miter; stroke-linecap: square"/>
   </g>
   <g id="patch_6">
    <path d="M 90 51.84 
L 648 51.84 
" style="fill: none; stroke: #000000; stroke-width: 0.8; stroke-linejoin: miter; stroke-linecap: square"/>
   </g>
   <g id="text_15">
    <!-- Solution Comparison -->
    <g transform="translate(298.720312 45.84) scale(0.12 -0.12)">
     <defs>
      <path id="DejaVuSans-Bold-53" d="M 3834 4519 
L 3834 3531 
Q 3450 3703 3084 3790 
Q 2719 3878 2394 3878 
Q 1963 3878 1756 3759 
Q 1550 3641 1550 3391 
Q 1550 3203 1689 3098 
Q 1828 2994 2194 2919 
L 2706 2816 
Q 3484 2659 3812 2340 
Q 4141 2022 4141 1434 
Q 4141 663 3683 286 
Q 3225 -91 2284 -91 
Q 1841 -91 1394 -6 
Q 947 78 500 244 
L 500 1259 
Q 947 1022 1364 901 
Q 1781 781 2169 781 
Q 2563 781 2772 912 
Q 2981 1044 2981 1288 
Q 2981 1506 2839 1625 
Q 2697 1744 2272 1838 
L 1806 1941 
Q 1106 2091 782 2419 
Q 459 2747 459 3303 
Q 459 4000 909 4375 
Q 1359 4750 2203 4750 
Q 2588 4750 2994 4692 
Q 3400 4634 3834 4519 
z
" transform="scale(0.015625)"/>
      <path id="DejaVuSans-Bold-6f" d="M 2203 2784 
Q 1831 2784 1636 2517 
Q 1441 2250 1441 1747 
Q 1441 1244 1636 976 
Q 1831 709 2203 709 
Q 2569 709 2762 976 
Q 2956 1244 2956 1747 
Q 2956 2250 2762 2517 
Q 2569 2784 2203 2784 
z
M 2203 3584 
Q 3106 3584 3614 3096 
Q 4122 2609 4122 1747 
Q 4122 884 3614 396 
Q 3106 -91 2203 -91 
Q 1297 -91 786 396 
Q 275 884 275 1747 
Q 275 2609 786 3096 
Q 1297 3584 2203 3584 
z
" transform="scale(0.015625)"/>
      <path id="DejaVuSans-Bold-6c" d="M 538 4863 
L 1656 4863 
L 1656 0 
L 538 0 
L 538 4863 
z
" transform="scale(0.015625)"/>
      <path id="DejaVuSans-Bold-75" d="M 500 1363 
L 500 3500 
L 1625 3500 
L 1625 3150 
Q 1625 2866 1622 2436 
Q 1619 2006 1619 1863 
Q 1619 1441 1641 1255 
Q 1663 1069 1716 984 
Q 1784 875 1895 815 
Q 2006 756 2150 756 
Q 2500 756 2700 1025 
Q 2900 1294 2900 1772 
L 2900 3500 
L 4019 3500 
L 4019 0 
L 2900 0 
L 2900 506 
Q 2647 200 2364 54 
Q 2081 -91 1741 -91 
Q 1134 -91 817 281 
Q 500 653 500 1363 
z
" transform="scale(0.015625)"/>
      <path id="DejaVuSans-Bold-74" d="M 1759 4494 
L 1759 3500 
L 2913 3500 
L 2913 2700 
L 1759 2700 
L 1759 1216 
Q 1759 972 1856 886 
Q 1953 800 2241 800 
L 2816 800 
L 2816 0 
L 1856 0 
Q 1194 0 917 276 
Q 641 553 641 1216 
L 641 2700 
L 84 2700 
L 84 3500 
L 641 3500 
L 641 4494 
L 1759 4494 
z
" transform="scale(0.015625)"/>
      <path id="DejaVuSans-Bold-69" d="M 538 3500 
L 1656 3500 
L 1656 0 
L 538 0 
L 538 3500 
z
M 538 4863 
L 1656 4863 
L 1656 3950 
L 538 3950 
L 538 4863 
z
" transform="scale(0.015625)"/>
      <path id="DejaVuSans-Bold-6e" d="M 4056 2131 
L 4056 0 
L 2931 0 
L 2931 347 
L 2931 1631 
Q 2931 2084 2911 2256 
Q 2891 2428 2841 2509 
Q 2775 2619 2662 2680 
Q 2550 2741 2406 2741 
Q 2056 2741 1856 2470 
Q 1656 2200 1656 1722 
L 1656 0 
L 538 0 
L 538 3500 
L 1656 3500 
L 1656 2988 
Q 1909 3294 2193 3439 
Q 2478 3584 2822 3584 
Q 3428 3584 3742 3212 
Q 4056 2841 4056 2131 
z
" transform="scale(0.015625)"/>
      <path id="DejaVuSans-Bold-20" transform="scale(0.015625)"/>
      <path id="DejaVuSans-Bold-43" d="M 4288 256 
Q 3956 84 3597 -3 
Q 3238 -91 2847 -91 
Q 1681 -91 1000 561 
Q 319 1213 319 2328 
Q 319 3447 1000 4098 
Q 1681 4750 2847 4750 
Q 3238 4750 3597 4662 
Q 3956 4575 4288 4403 
L 4288 3438 
Q 3953 3666 3628 3772 
Q 3303 3878 2944 3878 
Q 2300 3878 1931 3465 
Q 1563 3053 1563 2328 
Q 1563 1606 1931 1193 
Q 2300 781 2944 781 
Q 3303 781 3628 887 
Q 3953 994 4288 1222 
L 4288 256 
z
" transform="scale(0.015625)"/>
      <path id="DejaVuSans-Bold-6d" d="M 3781 2919 
Q 3994 3244 4286 3414 
Q 4578 3584 4928 3584 
Q 5531 3584 5847 3212 
Q 6163 2841 6163 2131 
L 6163 0 
L 5038 0 
L 5038 1825 
Q 5041 1866 5042 1909 
Q 5044 1953 5044 2034 
Q 5044 2406 4934 2573 
Q 4825 2741 4581 2741 
Q 4263 2741 4089 2478 
Q 3916 2216 3909 1719 
L 3909 0 
L 2784 0 
L 2784 1825 
Q 2784 2406 2684 2573 
Q 2584 2741 2328 2741 
Q 2006 2741 1831 2477 
Q 1656 2213 1656 1722 
L 1656 0 
L 531 0 
L 531 3500 
L 1656 3500 
L 1656 2988 
Q 1863 3284 2130 3434 
Q 2397 3584 2719 3584 
Q 3081 3584 3359 3409 
Q 3638 3234 3781 2919 
z
" transform="scale(0.015625)"/>
      <path id="DejaVuSans-Bold-70" d="M 1656 506 
L 1656 -1331 
L 538 -1331 
L 538 3500 
L 1656 3500 
L 1656 2988 
Q 1888 3294 2169 3439 
Q 2450 3584 2816 3584 
Q 3463 3584 3878 3070 
Q 4294 2556 4294 1747 
Q 4294 938 3878 423 
Q 3463 -91 2816 -91 
Q 2450 -91 2169 54 
Q 1888 200 1656 506 
z
M 2400 2772 
Q 2041 2772 1848 2508 
Q 1656 2244 1656 1747 
Q 1656 1250 1848 986 
Q 2041 722 2400 722 
Q 2759 722 2948 984 
Q 3138 1247 3138 1747 
Q 3138 2247 2948 2509 
Q 2759 2772 2400 2772 
z
" transform="scale(0.015625)"/>
      <path id="DejaVuSans-Bold-61" d="M 2106 1575 
Q 1756 1575 1579 1456 
Q 1403 1338 1403 1106 
Q 1403 894 1545 773 
Q 1688 653 1941 653 
Q 2256 653 2472 879 
Q 2688 1106 2688 1447 
L 2688 1575 
L 2106 1575 
z
M 3816 1997 
L 3816 0 
L 2688 0 
L 2688 519 
Q 2463 200 2181 54 
Q 1900 -91 1497 -91 
Q 953 -91 614 226 
Q 275 544 275 1050 
Q 275 1666 698 1953 
Q 1122 2241 2028 2241 
L 2688 2241 
L 2688 2328 
Q 2688 2594 2478 2717 
Q 2269 2841 1825 2841 
Q 1466 2841 1156 2769 
Q 847 2697 581 2553 
L 581 3406 
Q 941 3494 1303 3539 
Q 1666 3584 2028 3584 
Q 2975 3584 3395 3211 
Q 3816 2838 3816 1997 
z
" transform="scale(0.015625)"/>
      <path id="DejaVuSans-Bold-72" d="M 3138 2547 
Q 2991 2616 2845 2648 
Q 2700 2681 2553 2681 
Q 2122 2681 1889 2404 
Q 1656 2128 1656 1613 
L 1656 0 
L 538 0 
L 538 3500 
L 1656 3500 
L 1656 2925 
Q 1872 3269 2151 3426 
Q 2431 3584 2822 3584 
Q 2878 3584 2943 3579 
Q 3009 3575 3134 3559 
L 3138 2547 
z
" transform="scale(0.015625)"/>
      <path id="DejaVuSans-Bold-73" d="M 3272 3391 
L 3272 2541 
Q 2913 2691 2578 2766 
Q 2244 2841 1947 2841 
Q 1628 2841 1473 2761 
Q 1319 2681 1319 2516 
Q 1319 2381 1436 2309 
Q 1553 2238 1856 2203 
L 2053 2175 
Q 2913 2066 3209 1816 
Q 3506 1566 3506 1031 
Q 3506 472 3093 190 
Q 2681 -91 1863 -91 
Q 1516 -91 1145 -36 
Q 775 19 384 128 
L 384 978 
Q 719 816 1070 734 
Q 1422 653 1784 653 
Q 2113 653 2278 743 
Q 2444 834 2444 1013 
Q 2444 1163 2330 1236 
Q 2216 1309 1875 1350 
L 1678 1375 
Q 931 1469 631 1722 
Q 331 1975 331 2491 
Q 331 3047 712 3315 
Q 1094 3584 1881 3584 
Q 2191 3584 2531 3537 
Q 2872 3491 3272 3391 
z
" transform="scale(0.015625)"/>
     </defs>
     <use xlink:href="#DejaVuSans-Bold-53"/>
     <use xlink:href="#DejaVuSans-Bold-6f" transform="translate(72.021484 0)"/>
     <use xlink:href="#DejaVuSans-Bold-6c" transform="translate(140.722656 0)"/>
     <use xlink:href="#DejaVuSans-Bold-75" transform="translate(175 0)"/>
     <use xlink:href="#DejaVuSans-Bold-74" transform="translate(246.191406 0)"/>
     <use xlink:href="#DejaVuSans-Bold-69" transform="translate(293.994141 0)"/>
     <use xlink:href="#DejaVuSans-Bold-6f" transform="translate(328.271484 0)"/>
     <use xlink:href="#DejaVuSans-Bold-6e" transform="translate(396.972656 0)"/>
     <use xlink:href="#DejaVuSans-Bold-20" transform="translate(468.164062 0)"/>
     <use xlink:href="#DejaVuSans-Bold-43" transform="translate(502.978516 0)"/>
     <use xlink:href="#DejaVuSans-Bold-6f" transform="translate(576.367188 0)"/>
     <use xlink:href="#DejaVuSans-Bold-6d" transform="translate(645.068359 0)"/>
     <use xlink:href="#DejaVuSans-Bold-70" transform="translate(749.267578 0)"/>
     <use xlink:href="#DejaVuSans-Bold-61" transform="translate(820.849609 0)"/>
     <use xlink:href="#DejaVuSans-Bold-72" transform="translate(888.330078 0)"/>
     <use xlink:href="#DejaVuSans-Bold-69" transform="translate(937.646484 0)"/>
     <use xlink:href="#DejaVuSans-Bold-73" transform="translate(971.923828 0)"/>
     <use xlink:href="#DejaVuSans-Bold-6f" transform="translate(1031.445312 0)"/>
     <use xlink:href="#DejaVuSans-Bold-6e" transform="translate(1100.146484 0)"/>
    </g>
   </g>
   <g id="legend_1">
    <g id="patch_7">
     <path d="M 553.65625 119.386875 
L 641 119.386875 
Q 643 119.386875 643 117.386875 
L 643 58.84 
Q 643 56.84 641 56.84 
L 553.65625 56.84 
Q 551.65625 56.84 551.65625 58.84 
L 551.65625 117.386875 
Q 551.65625 119.386875 553.65625 119.386875 
z
" style="fill: #ffffff; opacity: 0.8; stroke: #cccccc; stroke-linejoin: miter"/>
    </g>
    <g id="line2d_29">
     <path d="M 555.65625 64.938437 
L 565.65625 64.938437 
L 575.65625 64.938437 
" style="fill: none; stroke: #9467bd; stroke-width: 1.5; stroke-linecap: square"/>
     <g>
      <use xlink:href="#md4a3707965" x="565.65625" y="64.938437" style="fill: #9467bd; stroke: #9467bd"/>
     </g>
    </g>
    <g id="text_16">
     <!-- F33_RGBS -->
     <g transform="translate(583.65625 68.438437) scale(0.1 -0.1)">
      <defs>
       <path id="DejaVuSans-46" d="M 628 4666 
L 3309 4666 
L 3309 4134 
L 1259 4134 
L 1259 2759 
L 3109 2759 
L 3109 2228 
L 1259 2228 
L 1259 0 
L 628 0 
L 628 4666 
z
" transform="scale(0.015625)"/>
       <path id="DejaVuSans-33" d="M 2597 2516 
Q 3050 2419 3304 2112 
Q 3559 1806 3559 1356 
Q 3559 666 3084 287 
Q 2609 -91 1734 -91 
Q 1441 -91 1130 -33 
Q 819 25 488 141 
L 488 750 
Q 750 597 1062 519 
Q 1375 441 1716 441 
Q 2309 441 2620 675 
Q 2931 909 2931 1356 
Q 2931 1769 2642 2001 
Q 2353 2234 1838 2234 
L 1294 2234 
L 1294 2753 
L 1863 2753 
Q 2328 2753 2575 2939 
Q 2822 3125 2822 3475 
Q 2822 3834 2567 4026 
Q 2313 4219 1838 4219 
Q 1578 4219 1281 4162 
Q 984 4106 628 3988 
L 628 4550 
Q 988 4650 1302 4700 
Q 1616 4750 1894 4750 
Q 2613 4750 3031 4423 
Q 3450 4097 3450 3541 
Q 3450 3153 3228 2886 
Q 3006 2619 2597 2516 
z
" transform="scale(0.015625)"/>
       <path id="DejaVuSans-5f" d="M 3263 -1063 
L 3263 -1509 
L -63 -1509 
L -63 -1063 
L 3263 -1063 
z
" transform="scale(0.015625)"/>
       <path id="DejaVuSans-52" d="M 2841 2188 
Q 3044 2119 3236 1894 
Q 3428 1669 3622 1275 
L 4263 0 
L 3584 0 
L 2988 1197 
Q 2756 1666 2539 1819 
Q 2322 1972 1947 1972 
L 1259 1972 
L 1259 0 
L 628 0 
L 628 4666 
L 2053 4666 
Q 2853 4666 3247 4331 
Q 3641 3997 3641 3322 
Q 3641 2881 3436 2590 
Q 3231 2300 2841 2188 
z
M 1259 4147 
L 1259 2491 
L 2053 2491 
Q 2509 2491 2742 2702 
Q 2975 2913 2975 3322 
Q 2975 3731 2742 3939 
Q 2509 4147 2053 4147 
L 1259 4147 
z
" transform="scale(0.015625)"/>
       <path id="DejaVuSans-47" d="M 3809 666 
L 3809 1919 
L 2778 1919 
L 2778 2438 
L 4434 2438 
L 4434 434 
Q 4069 175 3628 42 
Q 3188 -91 2688 -91 
Q 1594 -91 976 548 
Q 359 1188 359 2328 
Q 359 3472 976 4111 
Q 1594 4750 2688 4750 
Q 3144 4750 3555 4637 
Q 3966 4525 4313 4306 
L 4313 3634 
Q 3963 3931 3569 4081 
Q 3175 4231 2741 4231 
Q 1884 4231 1454 3753 
Q 1025 3275 1025 2328 
Q 1025 1384 1454 906 
Q 1884 428 2741 428 
Q 3075 428 3337 486 
Q 3600 544 3809 666 
z
" transform="scale(0.015625)"/>
       <path id="DejaVuSans-42" d="M 1259 2228 
L 1259 519 
L 2272 519 
Q 2781 519 3026 730 
Q 3272 941 3272 1375 
Q 3272 1813 3026 2020 
Q 2781 2228 2272 2228 
L 1259 2228 
z
M 1259 4147 
L 1259 2741 
L 2194 2741 
Q 2656 2741 2882 2914 
Q 3109 3088 3109 3444 
Q 3109 3797 2882 3972 
Q 2656 4147 2194 4147 
L 1259 4147 
z
M 628 4666 
L 2241 4666 
Q 2963 4666 3353 4366 
Q 3744 4066 3744 3513 
Q 3744 3084 3544 2831 
Q 3344 2578 2956 2516 
Q 3422 2416 3680 2098 
Q 3938 1781 3938 1306 
Q 3938 681 3513 340 
Q 3088 0 2303 0 
L 628 0 
L 628 4666 
z
" transform="scale(0.015625)"/>
       <path id="DejaVuSans-53" d="M 3425 4513 
L 3425 3897 
Q 3066 4069 2747 4153 
Q 2428 4238 2131 4238 
Q 1616 4238 1336 4038 
Q 1056 3838 1056 3469 
Q 1056 3159 1242 3001 
Q 1428 2844 1947 2747 
L 2328 2669 
Q 3034 2534 3370 2195 
Q 3706 1856 3706 1288 
Q 3706 609 3251 259 
Q 2797 -91 1919 -91 
Q 1588 -91 1214 -16 
Q 841 59 441 206 
L 441 856 
Q 825 641 1194 531 
Q 1563 422 1919 422 
Q 2459 422 2753 634 
Q 3047 847 3047 1241 
Q 3047 1584 2836 1778 
Q 2625 1972 2144 2069 
L 1759 2144 
Q 1053 2284 737 2584 
Q 422 2884 422 3419 
Q 422 4038 858 4394 
Q 1294 4750 2059 4750 
Q 2388 4750 2728 4690 
Q 3069 4631 3425 4513 
z
" transform="scale(0.015625)"/>
      </defs>
      <use xlink:href="#DejaVuSans-46"/>
      <use xlink:href="#DejaVuSans-33" transform="translate(57.519531 0)"/>
      <use xlink:href="#DejaVuSans-33" transform="translate(121.142578 0)"/>
      <use xlink:href="#DejaVuSans-5f" transform="translate(184.765625 0)"/>
      <use xlink:href="#DejaVuSans-52" transform="translate(234.765625 0)"/>
      <use xlink:href="#DejaVuSans-47" transform="translate(304.248047 0)"/>
      <use xlink:href="#DejaVuSans-42" transform="translate(381.738281 0)"/>
      <use xlink:href="#DejaVuSans-53" transform="translate(448.591797 0)"/>
     </g>
    </g>
    <g id="line2d_30">
     <path d="M 555.65625 79.894687 
L 565.65625 79.894687 
L 575.65625 79.894687 
" style="fill: none; stroke-dasharray: 5.55,2.4; stroke-dashoffset: 0; stroke: #ff7f0e; stroke-width: 1.5"/>
     <g>
      <use xlink:href="#m19fb9ebeca" x="565.65625" y="79.894687" style="fill: #ff7f0e; stroke: #ff7f0e; stroke-linejoin: miter"/>
     </g>
    </g>
    <g id="text_17">
     <!-- V33_RGBS -->
     <g transform="translate(583.65625 83.394687) scale(0.1 -0.1)">
      <defs>
       <path id="DejaVuSans-56" d="M 1831 0 
L 50 4666 
L 709 4666 
L 2188 738 
L 3669 4666 
L 4325 4666 
L 2547 0 
L 1831 0 
z
" transform="scale(0.015625)"/>
      </defs>
      <use xlink:href="#DejaVuSans-56"/>
      <use xlink:href="#DejaVuSans-33" transform="translate(68.408203 0)"/>
      <use xlink:href="#DejaVuSans-33" transform="translate(132.03125 0)"/>
      <use xlink:href="#DejaVuSans-5f" transform="translate(195.654297 0)"/>
      <use xlink:href="#DejaVuSans-52" transform="translate(245.654297 0)"/>
      <use xlink:href="#DejaVuSans-47" transform="translate(315.136719 0)"/>
      <use xlink:href="#DejaVuSans-42" transform="translate(392.626953 0)"/>
      <use xlink:href="#DejaVuSans-53" transform="translate(459.480469 0)"/>
     </g>
    </g>
    <g id="line2d_31">
     <path d="M 555.65625 94.850937 
L 565.65625 94.850937 
L 575.65625 94.850937 
" style="fill: none; stroke-dasharray: 9.6,2.4,1.5,2.4; stroke-dashoffset: 0; stroke: #2ca02c; stroke-width: 1.5"/>
     <g>
      <use xlink:href="#m370820c6d1" x="565.65625" y="94.850937" style="fill: #2ca02c; stroke: #2ca02c; stroke-linejoin: miter"/>
     </g>
    </g>
    <g id="text_18">
     <!-- W33_RGBS -->
     <g transform="translate(583.65625 98.350937) scale(0.1 -0.1)">
      <defs>
       <path id="DejaVuSans-57" d="M 213 4666 
L 850 4666 
L 1831 722 
L 2809 4666 
L 3519 4666 
L 4500 722 
L 5478 4666 
L 6119 4666 
L 4947 0 
L 4153 0 
L 3169 4050 
L 2175 0 
L 1381 0 
L 213 4666 
z
" transform="scale(0.015625)"/>
      </defs>
      <use xlink:href="#DejaVuSans-57"/>
      <use xlink:href="#DejaVuSans-33" transform="translate(98.876953 0)"/>
      <use xlink:href="#DejaVuSans-33" transform="translate(162.5 0)"/>
      <use xlink:href="#DejaVuSans-5f" transform="translate(226.123047 0)"/>
      <use xlink:href="#DejaVuSans-52" transform="translate(276.123047 0)"/>
      <use xlink:href="#DejaVuSans-47" transform="translate(345.605469 0)"/>
      <use xlink:href="#DejaVuSans-42" transform="translate(423.095703 0)"/>
      <use xlink:href="#DejaVuSans-53" transform="translate(489.949219 0)"/>
     </g>
    </g>
    <g id="line2d_32">
     <path d="M 555.65625 109.807187 
L 565.65625 109.807187 
L 575.65625 109.807187 
" style="fill: none; stroke-dasharray: 7.4,3.2; stroke-dashoffset: 0; stroke: #000000; stroke-width: 2"/>
    </g>
    <g id="text_19">
     <!-- Exact -->
     <g transform="translate(583.65625 113.307187) scale(0.1 -0.1)">
      <defs>
       <path id="DejaVuSans-45" d="M 628 4666 
L 3578 4666 
L 3578 4134 
L 1259 4134 
L 1259 2753 
L 3481 2753 
L 3481 2222 
L 1259 2222 
L 1259 531 
L 3634 531 
L 3634 0 
L 628 0 
L 628 4666 
z
" transform="scale(0.015625)"/>
       <path id="DejaVuSans-78" d="M 3513 3500 
L 2247 1797 
L 3578 0 
L 2900 0 
L 1881 1375 
L 863 0 
L 184 0 
L 1544 1831 
L 300 3500 
L 978 3500 
L 1906 2253 
L 2834 3500 
L 3513 3500 
z
" transform="scale(0.015625)"/>
       <path id="DejaVuSans-61" d="M 2194 1759 
Q 1497 1759 1228 1600 
Q 959 1441 959 1056 
Q 959 750 1161 570 
Q 1363 391 1709 391 
Q 2188 391 2477 730 
Q 2766 1069 2766 1631 
L 2766 1759 
L 2194 1759 
z
M 3341 1997 
L 3341 0 
L 2766 0 
L 2766 531 
Q 2569 213 2275 61 
Q 1981 -91 1556 -91 
Q 1019 -91 701 211 
Q 384 513 384 1019 
Q 384 1609 779 1909 
Q 1175 2209 1959 2209 
L 2766 2209 
L 2766 2266 
Q 2766 2663 2505 2880 
Q 2244 3097 1772 3097 
Q 1472 3097 1187 3025 
Q 903 2953 641 2809 
L 641 3341 
Q 956 3463 1253 3523 
Q 1550 3584 1831 3584 
Q 2591 3584 2966 3190 
Q 3341 2797 3341 1997 
z
" transform="scale(0.015625)"/>
       <path id="DejaVuSans-63" d="M 3122 3366 
L 3122 2828 
Q 2878 2963 2633 3030 
Q 2388 3097 2138 3097 
Q 1578 3097 1268 2742 
Q 959 2388 959 1747 
Q 959 1106 1268 751 
Q 1578 397 2138 397 
Q 2388 397 2633 464 
Q 2878 531 3122 666 
L 3122 134 
Q 2881 22 2623 -34 
Q 2366 -91 2075 -91 
Q 1284 -91 818 406 
Q 353 903 353 1747 
Q 353 2603 823 3093 
Q 1294 3584 2113 3584 
Q 2378 3584 2631 3529 
Q 2884 3475 3122 3366 
z
" transform="scale(0.015625)"/>
       <path id="DejaVuSans-74" d="M 1172 4494 
L 1172 3500 
L 2356 3500 
L 2356 3053 
L 1172 3053 
L 1172 1153 
Q 1172 725 1289 603 
Q 1406 481 1766 481 
L 2356 481 
L 2356 0 
L 1766 0 
Q 1100 0 847 248 
Q 594 497 594 1153 
L 594 3053 
L 172 3053 
L 172 3500 
L 594 3500 
L 594 4494 
L 1172 4494 
z
" transform="scale(0.015625)"/>
      </defs>
      <use xlink:href="#DejaVuSans-45"/>
      <use xlink:href="#DejaVuSans-78" transform="translate(63.183594 0)"/>
      <use xlink:href="#DejaVuSans-61" transform="translate(122.363281 0)"/>
      <use xlink:href="#DejaVuSans-63" transform="translate(183.642578 0)"/>
      <use xlink:href="#DejaVuSans-74" transform="translate(238.623047 0)"/>
     </g>
    </g>
   </g>
  </g>
 </g>
 <defs>
  <clipPath id="p2a6d24fc85">
   <rect x="90" y="51.84" width="558" height="332.64"/>
  </clipPath>
 </defs>
</svg>
